<?xml version="1.0" encoding="UTF-8" standalone="no"?>
<!DOCTYPE svg PUBLIC "-//W3C//DTD SVG 1.1//EN"
 "http://www.w3.org/Graphics/SVG/1.1/DTD/svg11.dtd">
<!-- Generated by graphviz version 2.40.1 (20161225.0304)
 -->
<!-- Title: upgrade Pages: 1 -->
<svg width="573pt" height="100pt"
 viewBox="0.00 0.00 573.27 100.29" xmlns="http://www.w3.org/2000/svg" xmlns:xlink="http://www.w3.org/1999/xlink">
<g id="graph0" class="graph" transform="scale(1 1) rotate(0) translate(4 96.2918)">
<title>upgrade</title>
<polygon fill="#ffffff" stroke="transparent" points="-4,4 -4,-96.2918 569.2722,-96.2918 569.2722,4 -4,4"/>
<!-- starting -->
<g id="node1" class="node">
<title>starting</title>
<ellipse fill="none" stroke="#000000" cx="37.0467" cy="-46.1459" rx="37.0935" ry="37.0935"/>
<text text-anchor="middle" x="37.0467" y="-42.4459" font-family="Times,serif" font-size="14.00" fill="#000000">starting</text>
</g>
<!-- running -->
<g id="node2" class="node">
<title>running</title>
<ellipse fill="none" stroke="#000000" cx="179.44" cy="-46.1459" rx="38.1938" ry="38.1938"/>
<text text-anchor="middle" x="179.44" y="-42.4459" font-family="Times,serif" font-size="14.00" fill="#000000">running</text>
</g>
<!-- starting&#45;&gt;running -->
<g id="edge1" class="edge">
<title>starting&#45;&gt;running</title>
<path fill="none" stroke="#000000" d="M74.4589,-46.1459C91.6212,-46.1459 112.1932,-46.1459 130.5606,-46.1459"/>
<polygon fill="#000000" stroke="#000000" points="130.789,-49.646 140.789,-46.1459 130.7889,-42.646 130.789,-49.646"/>
<text text-anchor="middle" x="107.5934" y="-49.9459" font-family="Times,serif" font-size="14.00" fill="#000000">ready</text>
</g>
<!-- upgrading -->
<g id="node3" class="node">
<title>upgrading</title>
<ellipse fill="none" stroke="#000000" cx="351.9325" cy="-46.1459" rx="46.2923" ry="46.2923"/>
<text text-anchor="middle" x="351.9325" y="-42.4459" font-family="Times,serif" font-size="14.00" fill="#000000">upgrading</text>
</g>
<!-- running&#45;&gt;upgrading -->
<g id="edge2" class="edge">
<title>running&#45;&gt;upgrading</title>
<path fill="none" stroke="#000000" d="M218.1507,-46.1459C240.9363,-46.1459 270.1592,-46.1459 295.4773,-46.1459"/>
<polygon fill="#000000" stroke="#000000" points="295.6927,-49.646 305.6926,-46.1459 295.6926,-42.646 295.6927,-49.646"/>
<text text-anchor="middle" x="261.7866" y="-49.9459" font-family="Times,serif" font-size="14.00" fill="#000000">upgrade</text>
</g>
<!-- upgrading&#45;&gt;running -->
<g id="edge4" class="edge">
<title>upgrading&#45;&gt;running</title>
<path fill="none" stroke="#000000" d="M308.137,-31.3645C301.392,-29.6164 294.4534,-28.1125 287.7866,-27.1459 264.9147,-23.8298 258.5928,-23.4043 235.7866,-27.1459 232.3197,-27.7147 228.7788,-28.468 225.2449,-29.3468"/>
<polygon fill="#000000" stroke="#000000" points="224.0599,-26.0437 215.3711,-32.1063 225.9441,-32.7854 224.0599,-26.0437"/>
<text text-anchor="middle" x="261.7866" y="-30.9459" font-family="Times,serif" font-size="14.00" fill="#000000">child exit</text>
</g>
<!-- exiting -->
<g id="node4" class="node">
<title>exiting</title>
<ellipse fill="none" stroke="#000000" cx="530.1753" cy="-46.1459" rx="35.194" ry="35.194"/>
<text text-anchor="middle" x="530.1753" y="-42.4459" font-family="Times,serif" font-size="14.00" fill="#000000">exiting</text>
</g>
<!-- upgrading&#45;&gt;exiting -->
<g id="edge3" class="edge">
<title>upgrading&#45;&gt;exiting</title>
<path fill="none" stroke="#000000" d="M398.2984,-46.1459C424.9795,-46.1459 458.3608,-46.1459 484.8626,-46.1459"/>
<polygon fill="#000000" stroke="#000000" points="485.021,-49.646 495.021,-46.1459 485.0209,-42.646 485.021,-49.646"/>
<text text-anchor="middle" x="446.5784" y="-49.9459" font-family="Times,serif" font-size="14.00" fill="#000000">child ready</text>
</g>
</g>
</svg>
